# xmcd CD database file
#
# Track frame offsets:
#	150
#	9374
#	20155
#	30614
#	43345
#	54805
#	70028
#	79348
#	90591
#	103520
#	118445
#	129915
#	141882
#	151925
#	164194
#	177031
#	191175
#	204631
#	217904
#	234791
#	246786
#	262432
#	276799
#
# Disc length: 3868
# Revision: 2
# Processed by: cddbd v1.5.2PL0 Copyright (c) Steve Scherf et al.
# Submitted via: cddb.el 1.0 (Emacs 27.0.50)
#
DISCID=4a0f1a17
DTITLE=Bobbie Gentry - The Girl From Chickasaw County (5): Touch 'Em With Love
DYEAR=2018
DGENRE=Country
TTITLE0=Touch 'em with Love
TTITLE1=Greyhound Goin' Somewhere
TTITLE2=Natural to Be Gone
TTITLE3=Seasons Come, Seasons Go
TTITLE4=Glory Hallelujah, How They'll Sing
TTITLE5=I Wouldn't Be Surprised
TTITLE6=Son of a Preacher Man
TTITLE7=Where's the Playground, Johnny
TTITLE8=I'll Never Fall in Love Again
TTITLE9=You've Made Me so Very Happy
TTITLE10=More Today Than Yesterday
TTITLE11=Spinning Wheel
TTITLE12=Touch 'em with Love (Alternate Stereo Version)
TTITLE13=Glory Hallelujah, How They'll Sing (Alternate Take)
TTITLE14=Seasons Come, Seasons Go (Acoustic Demo)
TTITLE15=Supper Time
TTITLE16=God Bless the Child
TTITLE17=Since I Fell for You
TTITLE18=Save Your Love for Me
TTITLE19=Heres That Rainy Day
TTITLE20=Stormy
TTITLE21=This Girl's in Love with You
TTITLE22=The Windows of the World
EXTD=
EXTT0=
EXTT1=
EXTT2=
EXTT3=
EXTT4=
EXTT5=
EXTT6=
EXTT7=
EXTT8=
EXTT9=
EXTT10=
EXTT11=
EXTT12=
EXTT13=
EXTT14=
EXTT15=
EXTT16=
EXTT17=
EXTT18=
EXTT19=
EXTT20=
EXTT21=
EXTT22=
PLAYORDER=
